<?xml version="1.0" encoding="utf-8"?>
<!-- Generator: Adobe Illustrator 24.1.0, SVG Export Plug-In . SVG Version: 6.00 Build 0)  -->
<svg version="1.1" id="Ebene_1" xmlns="http://www.w3.org/2000/svg" xmlns:xlink="http://www.w3.org/1999/xlink" x="0px" y="0px"
	 viewBox="0 0 598 598" style="enable-background:new 0 0 598 598;" xml:space="preserve">
<style type="text/css">
	.st0{fill:url(#SVGID_1_);}
</style>
<g id="Ebene_2_1_">
	<g id="Ebene_1-2">
		
			<image style="overflow:visible;opacity:0.15;enable-background:new    ;" width="598" height="526" xlink:href="698342DBEAAE69F6.png"  transform="matrix(1 0 0 1 0 46)">
		</image>
		
			<linearGradient id="SVGID_1_" gradientUnits="userSpaceOnUse" x1="299" y1="548.17" x2="299" y2="1008.34" gradientTransform="matrix(1 0 0 1 0 -480)">
			<stop  offset="0" style="stop-color:#FFBA00"/>
			<stop  offset="1" style="stop-color:#FF7700"/>
		</linearGradient>
		<path class="st0" d="M567.8,66.4L498,187.2v0.1l-1.3,2.2l-0.2,0.3c-22.2,37.4-61.8,61-105.3,62.8c0,0-17.3-0.4-20.6-0.8
			c16.7,22.3,25.8,49.4,25.7,77.2c0,5.6-0.4,11.2-1.1,16.8c-1.8,13.7-5.8,27-11.8,39.4l-84.7,146.5L261,466.3
			c-9.6-16.6-9.6-37,0-53.6l32.8-56.6l5.3-10.3c21.9-47.7,12.6-104-23.6-142.1l-83.1,143.7l-53.2-92.2l55.4-95.7H83.9l-53.7-93
			h324.7L288.5,181c9.9,2.4,20.1,3.6,30.3,3.6c27.5,0,54.3-8.8,76.4-25.2c14-10.4,25.8-23.5,34.6-38.5l16.1-27.8
			c9.6-16.6,27.3-26.8,46.4-26.8L567.8,66.4z"/>
	</g>
</g>
</svg>
