<svg width="36" height="36" viewBox="0 0 36 36" fill="none" xmlns="http://www.w3.org/2000/svg">
<path d="M24 33.0001V27.1951C24.0563 26.4799 23.9596 25.7609 23.7165 25.0858C23.4734 24.4108 23.0894 23.7953 22.59 23.2802C27.3 22.7552 32.25 20.9701 32.25 12.7802C32.2496 10.6859 31.444 8.67195 30 7.15515C30.6838 5.32291 30.6354 3.29767 29.865 1.50015C29.865 1.50015 28.095 0.975151 24 3.72015C20.562 2.78838 16.938 2.78838 13.5 3.72015C9.405 0.975151 7.635 1.50015 7.635 1.50015C6.86456 3.29767 6.81622 5.32291 7.5 7.15515C6.04519 8.6832 5.23878 10.7153 5.25 12.8251C5.25 20.9551 10.2 22.7401 14.91 23.3251C14.4165 23.8351 14.0359 24.4433 13.793 25.11C13.55 25.7768 13.4502 26.4872 13.5 27.1951V33.0001M13.5 28.5001C6 30.7501 6 24.7501 3 24.0001L13.5 28.5001Z" stroke="white" stroke-width="2" stroke-linecap="round" stroke-linejoin="round"/>
</svg>
