<svg width="36" height="36" viewBox="0 0 36 36" fill="none" xmlns="http://www.w3.org/2000/svg">
<path d="M33.975 21.5853L18 33.1953L2.02499 21.5853C1.81083 21.4278 1.65197 21.2066 1.57114 20.9533C1.49031 20.7001 1.49166 20.4278 1.57499 20.1753L3.40499 14.5053L7.06499 3.24031C7.10049 3.14852 7.157 3.06632 7.22999 3.00031C7.34885 2.89174 7.50401 2.83154 7.66499 2.83154C7.82597 2.83154 7.98113 2.89174 8.09999 3.00031C8.17706 3.0748 8.23385 3.16774 8.26499 3.27031L11.925 14.5053H24.075L27.735 3.24031C27.7705 3.14852 27.827 3.06632 27.9 3.00031C28.0188 2.89174 28.174 2.83154 28.335 2.83154C28.496 2.83154 28.6511 2.89174 28.77 3.00031C28.8471 3.0748 28.9039 3.16774 28.935 3.27031L32.595 14.5353L34.5 20.1753C34.5758 20.4355 34.5656 20.7133 34.471 20.9673C34.3765 21.2213 34.2025 21.438 33.975 21.5853V21.5853Z" stroke="white" stroke-width="2" stroke-linecap="round" stroke-linejoin="round"/>
</svg>
